# xmcd
#
# Track frame offsets: 
#        182
#        25442
#        47257
#        62840
#        88062
#        105820
#        125237
#        137072
#        153057
#        163942
#
# Disc length: 2297 seconds
#
# Revision: 5
# Processed by: cddbd v1.5.2PL0 Copyright (c) Steve Scherf et al.
# Submitted via: ExactAudioCopy v0.90b4
#
DISCID=7d08f70a
DTITLE=Paulo Moura and Raphael Rabello - Dois Irmãos
DYEAR=1992
DGENRE=Choro
TTITLE0=Ronda - Sampa
TTITLE1=Chorando Baixinho
TTITLE2=Domingo No Orfeão Portugal
TTITLE3=Violão Vadio
TTITLE4=Morena Boca De Ouro
TTITLE5=Tempos Felizes
TTITLE6=1X0 (Um A Zero)
TTITLE7=Tarde De Chuva
TTITLE8=Luiza
TTITLE9=Um Chorinho Em Aldeia
EXTD=YEAR: 1992
EXTT0=
EXTT1=
EXTT2=
EXTT3=
EXTT4=
EXTT5=
EXTT6=
EXTT7=
EXTT8=
EXTT9=
PLAYORDER=
